<svg width="119" height="41" viewBox="0 0 119 41" fill="none" xmlns="http://www.w3.org/2000/svg">
<path d="M55.7109 17.5628C55.465 16.8566 55.0922 16.2009 54.6105 15.6279C54.1659 15.1007 53.6158 14.6719 52.9953 14.3687C52.3323 14.0749 51.6144 13.924 50.8887 13.926C50.2093 13.9143 49.534 14.0333 48.8998 14.2762C48.3553 14.4946 47.8557 14.8106 47.4257 15.2086C47.0175 15.6009 46.6774 16.0581 46.4195 16.5615V8.44534H45.6484V26.0735H46.3737V23.7414C46.7992 24.5314 47.4314 25.192 48.2032 25.6529C48.9789 26.0695 49.8497 26.2785 50.7306 26.2597C51.2484 26.2548 51.762 26.1669 52.2517 25.9993C52.7754 25.8372 53.2664 25.5846 53.7023 25.2531C54.1629 24.9065 54.5656 24.4894 54.8954 24.0174C55.2641 23.4674 55.5396 22.8608 55.7109 22.2218C55.9269 21.4631 56.0373 20.6784 56.0389 19.8897C56.0361 19.1011 55.9258 18.3166 55.7109 17.5576V17.5628ZM54.966 22.2218C54.7899 22.8723 54.488 23.4822 54.0773 24.0174C53.6989 24.5169 53.2107 24.9236 52.6503 25.2063C52.0446 25.4947 51.3796 25.6383 50.7084 25.6256C50.2128 25.6245 49.7213 25.5363 49.2565 25.3651C48.825 25.2052 48.4221 24.977 48.0634 24.6893C47.7198 24.409 47.4202 24.0789 47.1748 23.7101C46.9457 23.3513 46.7573 22.9683 46.6129 22.5682C46.4933 22.1888 46.4303 21.7939 46.426 21.3963V19.0785C46.4341 18.6812 46.497 18.2868 46.6129 17.9066C46.7458 17.4796 46.9347 17.072 47.1748 16.6943C47.674 15.8677 48.4182 15.2158 49.3049 14.8283C49.797 14.6372 50.3214 14.5422 50.8495 14.5484C51.4872 14.537 52.1181 14.6794 52.6886 14.9634C53.2591 15.2475 53.7521 15.6649 54.1257 16.18C54.5246 16.702 54.8188 17.2957 54.9921 17.9287C55.1835 18.5959 55.2781 19.287 55.2731 19.9809C55.2879 20.7612 55.1853 21.5394 54.9686 22.2895L54.966 22.2218Z" fill="#221122"/>
<path d="M58.2157 14.2045H57.4434V26.0968H58.2157V14.2045Z" fill="#221122"/>
<path d="M58.5188 10.2643C58.4513 10.1356 58.3552 10.0238 58.2379 9.93761C58.1212 9.86188 57.9852 9.82121 57.846 9.82046C57.6977 9.82085 57.5523 9.86134 57.4253 9.93761C57.3132 10.0293 57.2182 10.1399 57.1444 10.2643C57.0827 10.4038 57.0508 10.5545 57.0508 10.7069C57.0508 10.8593 57.0827 11.0101 57.1444 11.1495C57.2106 11.2792 57.3069 11.3912 57.4253 11.4762C57.5531 11.5147 57.6894 11.5147 57.8172 11.4762C58.0348 11.4745 58.2437 11.3914 58.4025 11.2432C58.4958 11.0998 58.5549 10.937 58.5752 10.7674C58.5956 10.5977 58.5767 10.4256 58.5201 10.2643H58.5188Z" fill="#221122"/>
<path d="M76.7718 19.0732C76.7828 18.3987 76.7122 17.7255 76.5614 17.0679C76.448 16.5755 76.2584 16.1037 75.9995 15.6694C75.792 15.3207 75.5315 15.0062 75.2272 14.7371C74.9634 14.5272 74.6719 14.3546 74.3608 14.224C74.1076 14.1099 73.8398 14.0315 73.5649 13.991H72.9337C72.4668 13.9873 72.0017 14.05 71.5524 14.1772C71.1683 14.2785 70.8042 14.444 70.4756 14.6668C70.1884 14.846 69.9283 15.0653 69.7033 15.3178C69.4819 15.5304 69.2927 15.7738 69.1414 16.0405C69.011 16.2502 68.8936 16.4676 68.7898 16.6916C68.6388 16.1907 68.3926 15.7235 68.0646 15.3152C67.7467 14.9154 67.3454 14.5893 66.8884 14.3595C66.4243 14.1128 65.905 13.9874 65.3791 13.9949C64.7882 13.9904 64.2015 14.0933 63.6476 14.2983C63.1705 14.4949 62.74 14.789 62.3839 15.1616C61.995 15.5405 61.671 15.9804 61.4247 16.4637V14.2748H60.6484V26.1437H61.4208V18.7281C61.4251 18.3304 61.488 17.9356 61.6076 17.5562C61.7358 17.172 61.9086 16.804 62.1225 16.4598C62.3511 16.1058 62.6267 15.7843 62.9419 15.504C63.253 15.258 63.6003 15.0612 63.9716 14.9207C64.3563 14.7587 64.7708 14.6793 65.1883 14.6876C65.6423 14.6733 66.0929 14.7699 66.5009 14.969C66.9088 15.168 67.2617 15.4635 67.5288 15.8296C67.798 16.211 67.9963 16.6375 68.1142 17.0887C68.2585 17.6076 68.3293 18.1441 68.3246 18.6825V26.1671H69.0969V18.3791C69.1169 17.9137 69.22 17.4556 69.4014 17.0262C69.5858 16.5817 69.8468 16.1728 70.1724 15.8178C70.4872 15.4542 70.8686 15.1537 71.2963 14.9324C71.7259 14.7204 72.1982 14.6087 72.6776 14.6056C73.3464 14.5836 74.0041 14.7802 74.5503 15.1655C75.0581 15.572 75.4397 16.1139 75.6506 16.728C75.902 17.5192 76.0207 18.3463 76.0021 19.176V26.171H76.7744L76.7718 19.0732Z" fill="#221122"/>
<path d="M95.2105 19.0734C95.2215 18.399 95.1508 17.7257 95.0001 17.0682C94.8867 16.5758 94.6971 16.104 94.4382 15.6697C94.2307 15.3209 93.9701 15.0064 93.6658 14.7373C93.3952 14.5387 93.1049 14.3681 92.7994 14.2282C92.5616 14.1171 92.3097 14.0387 92.0506 13.9951H91.4416C90.9674 13.9918 90.495 14.0545 90.0381 14.1813C89.6629 14.2871 89.3073 14.4524 88.9849 14.6709C88.6949 14.8562 88.4278 15.0747 88.189 15.322C87.9819 15.5412 87.8013 15.7837 87.6506 16.0447C87.5114 16.2492 87.3936 16.4673 87.2991 16.6957C87.1481 16.1949 86.9018 15.7276 86.5738 15.3194C86.256 14.9196 85.8546 14.5934 85.3977 14.3636C84.9254 14.1121 84.3963 13.9852 83.8609 13.9951C83.2778 13.993 82.6992 14.0958 82.1529 14.2985C81.6717 14.5004 81.2345 14.7936 80.8657 15.1618C80.4914 15.5479 80.1762 15.9866 79.93 16.464V14.2751H78.9473V26.144H79.7196V18.7284C79.7239 18.3307 79.7869 17.9358 79.9065 17.5564C80.0347 17.1723 80.2075 16.8043 80.4213 16.4601C80.6427 16.1008 80.9192 15.7783 81.2407 15.5043C81.5793 15.2476 81.9594 15.0504 82.3646 14.9209C82.758 14.7609 83.1798 14.6816 83.6047 14.6879C84.0928 14.637 84.5855 14.7175 85.0318 14.9209C85.4221 15.1282 85.7648 15.4142 86.038 15.7608C86.298 16.1475 86.4955 16.5723 86.6234 17.02C86.767 17.5364 86.8378 18.0701 86.8338 18.606V26.0906H87.6062V18.3794C87.6067 17.9141 87.7023 17.4538 87.8871 17.0265C88.0799 16.581 88.3487 16.1721 88.6817 15.8181C88.964 15.4592 89.3138 15.1585 89.7114 14.9327C90.1399 14.7175 90.613 14.6056 91.0927 14.6058C91.7547 14.5801 92.4061 14.7774 92.9419 15.1657C93.4632 15.5595 93.8479 16.1058 94.0422 16.7283C94.3043 17.517 94.4234 18.346 94.3937 19.1763V26.1713H95.166L95.2105 19.0734Z" fill="#221122"/>
<path d="M106.094 17.9351C106.015 17.42 105.865 16.918 105.65 16.4429C105.453 15.9715 105.176 15.5376 104.831 15.1603C104.464 14.7753 104.018 14.4734 103.524 14.2749C102.946 14.0286 102.322 13.9092 101.694 13.9246C100.994 13.9197 100.3 14.0625 99.6583 14.3439C99.0081 14.6306 98.432 15.0613 97.9738 15.603C97.4762 16.1953 97.095 16.8755 96.85 17.6083C96.5771 18.4997 96.4448 19.4279 96.4579 20.3597C96.4549 21.1522 96.5816 21.9399 96.833 22.6918C97.069 23.3833 97.4344 24.0239 97.9098 24.5799C98.3907 25.0993 98.9704 25.5185 99.6152 25.813C100.357 26.1189 101.153 26.2696 101.956 26.2557C102.575 26.2447 103.193 26.1903 103.805 26.093C104.22 26.013 104.627 25.8957 105.021 25.7427C105.244 25.6699 105.457 25.5679 105.653 25.4393L105.372 24.8559C105.13 24.982 104.88 25.0912 104.623 25.1828C104.281 25.3134 103.929 25.4149 103.57 25.4862C103.071 25.5274 102.57 25.5274 102.072 25.4862C101.166 25.514 100.272 25.2792 99.4975 24.8104C98.7557 24.3279 98.1833 23.6269 97.8601 22.8051C97.4801 21.7919 97.2973 20.7158 97.3217 19.6344H106.097C106.108 19.5808 106.108 19.5253 106.097 19.4717V19.4508C106.142 18.9466 106.142 18.4394 106.097 17.9351H106.094ZM97.3387 19.1474C97.3831 18.7277 97.4707 18.3136 97.6001 17.9117C97.721 17.4769 97.9022 17.0609 98.1385 16.676C98.3513 16.2757 98.6295 15.9136 98.9618 15.6043C99.3 15.2742 99.6995 15.0129 100.138 14.8348C101.066 14.4948 102.085 14.4948 103.013 14.8348C103.389 14.982 103.731 15.2034 104.019 15.4859C104.298 15.7469 104.528 16.0556 104.697 16.3973C104.881 16.7117 105.023 17.0488 105.118 17.4C105.206 17.7224 105.276 18.0493 105.329 18.3792C105.35 18.6509 105.35 18.9239 105.329 19.1956L97.3387 19.1474Z" fill="#221122"/>
<path d="M112.203 13.9951H111.758C111.354 13.986 110.952 14.0655 110.582 14.2281C110.227 14.3716 109.895 14.5683 109.599 14.8115C109.314 15.0745 109.062 15.3719 108.851 15.6969C108.64 16.0232 108.475 16.3762 108.359 16.7464V14.2724H107.498V26.1439H108.434V19.4288C108.427 18.7987 108.508 18.1708 108.674 17.5629C108.824 17.0198 109.053 16.5013 109.352 16.0238C109.607 15.592 109.95 15.2184 110.359 14.9274C110.755 14.6714 111.22 14.5412 111.693 14.5537H112.203V13.9951Z" fill="#221122"/>
<path d="M94.5825 29.6871H93.2012V30.1299H94.5825V35.423C94.5708 35.6251 94.5708 35.8277 94.5825 36.0298C94.5714 36.2393 94.5714 36.4492 94.5825 36.6587C94.6475 36.8583 94.7422 37.047 94.8634 37.2186C94.9952 37.4009 95.1728 37.5455 95.3783 37.6379C95.6314 37.7375 95.9021 37.7849 96.1742 37.7772C96.3763 37.8037 96.581 37.8037 96.7831 37.7772C96.9313 37.7591 97.0743 37.7117 97.2039 37.6379V37.2642H96.3375C96.075 37.2794 95.8163 37.1963 95.6122 37.0311C95.4249 36.8713 95.2887 36.6604 95.2202 36.4243C95.1225 36.1305 95.0752 35.8224 95.0804 35.5128V30.1299H97.4209V29.6871H95.0738V27.9853L94.5589 28.2184L94.5825 29.6871Z" fill="#221122"/>
<path d="M104.2 32.1832C104.134 31.8392 104.032 31.5031 103.895 31.1806C103.752 30.8735 103.563 30.5902 103.333 30.3407C103.095 30.0751 102.798 29.8675 102.467 29.7339C102.084 29.5654 101.668 29.4857 101.25 29.5008C100.775 29.4988 100.305 29.5941 99.869 29.7808C99.4405 29.9696 99.0633 30.2575 98.7687 30.6206C98.4242 31.0126 98.1687 31.4741 98.0199 31.9736C97.8244 32.5612 97.7294 33.1775 97.7389 33.7965C97.7382 34.3436 97.8264 34.8871 98.0003 35.406C98.147 35.8733 98.3946 36.3031 98.7256 36.6651C99.0451 37.0211 99.4354 37.3071 99.8716 37.505C100.347 37.6984 100.856 37.7936 101.369 37.7849C101.782 37.8252 102.197 37.8252 102.609 37.7849C102.889 37.7338 103.164 37.6558 103.429 37.5519L103.85 37.3657L103.755 36.8526C103.601 36.9491 103.436 37.0273 103.264 37.0857C103.028 37.167 102.785 37.2292 102.539 37.2719C102.205 37.312 101.867 37.312 101.533 37.2719C100.929 37.2887 100.335 37.1265 99.8246 36.8057C99.3353 36.4853 98.9589 36.0204 98.7478 35.4763C98.4771 34.8022 98.3499 34.0794 98.374 33.3538H104.366V33.2119C104.347 32.8651 104.292 32.5213 104.202 32.1858L104.2 32.1832ZM98.3257 32.9996C98.3656 32.7152 98.4281 32.4344 98.5126 32.1598C98.6055 31.8779 98.7231 31.6047 98.8641 31.3433C99.0189 31.079 99.2078 30.836 99.426 30.6206C99.6465 30.4 99.9091 30.2255 100.198 30.1076C100.511 29.9833 100.845 29.92 101.181 29.9214C101.774 29.9048 102.352 30.1133 102.796 30.5048C102.979 30.6849 103.137 30.8891 103.264 31.1115C103.378 31.3281 103.472 31.5543 103.545 31.7874C103.611 31.9997 103.658 32.2176 103.685 32.4384C103.696 32.6249 103.696 32.8118 103.685 32.9983L98.3257 32.9996Z" fill="#221122"/>
<path d="M110.776 36.846L110.285 37.0557C110.07 37.1564 109.841 37.227 109.607 37.2653C109.312 37.3047 109.013 37.3047 108.718 37.2653C108.261 37.2625 107.808 37.1742 107.384 37.0049C106.986 36.8186 106.628 36.5573 106.33 36.2353C106.031 35.8914 105.801 35.4936 105.652 35.0634C105.486 34.5838 105.407 34.0785 105.418 33.5712C105.418 33.1897 105.465 32.8097 105.558 32.4396C105.653 32.081 105.795 31.7361 105.979 31.4136C106.363 30.7742 106.959 30.2877 107.663 30.0372C108.055 29.9032 108.466 29.8324 108.88 29.8276H109.699L110.331 30.0372L110.775 30.2703L111.009 29.8966C110.881 29.7912 110.739 29.7036 110.588 29.6362C110.406 29.5602 110.218 29.4979 110.026 29.45H109.441C109.262 29.4277 109.081 29.4277 108.902 29.45C108.356 29.4398 107.814 29.5432 107.31 29.7533C106.825 29.9465 106.386 30.2408 106.023 30.6167C105.663 31.0046 105.377 31.4553 105.18 31.9461C104.967 32.5043 104.864 33.0979 104.876 33.6949C104.875 34.2491 104.963 34.7999 105.137 35.3264C105.315 35.7968 105.577 36.2313 105.91 36.609C106.247 36.9658 106.653 37.2514 107.103 37.4489C107.594 37.6441 108.119 37.7393 108.647 37.7289C108.997 37.7683 109.351 37.7683 109.701 37.7289C109.973 37.6782 110.24 37.6001 110.496 37.4958L110.988 37.2627L110.776 36.846Z" fill="#221122"/>
<path d="M118.217 32.812C118.219 32.3728 118.164 31.9351 118.054 31.5099C117.98 31.1849 117.847 30.876 117.662 30.5984C117.518 30.3662 117.327 30.1673 117.1 30.015C116.915 29.8748 116.71 29.7644 116.491 29.6882C116.301 29.6154 116.105 29.5609 115.905 29.5254H114.852C114.602 29.5745 114.359 29.6528 114.127 29.7585C113.849 29.8965 113.589 30.0689 113.355 30.2715C113.095 30.5253 112.875 30.8163 112.701 31.1349V25.8404H112.18V37.6155H112.695V32.7677C112.711 32.3919 112.79 32.0214 112.928 31.6713C113.082 31.3451 113.287 31.0461 113.537 30.7859C113.789 30.5351 114.082 30.3297 114.404 30.1791C114.731 30.015 115.091 29.9296 115.457 29.9296C115.823 29.9296 116.184 30.015 116.51 30.1791C116.803 30.3317 117.053 30.5557 117.236 30.8302C117.422 31.113 117.549 31.4299 117.611 31.7625C117.709 32.1112 117.749 32.4738 117.728 32.8354V37.4983H118.267L118.217 32.812Z" fill="#221122"/>
<path fill-rule="evenodd" clip-rule="evenodd" d="M38.2326 11.2437C36.8379 8.69583 34.8992 6.48383 32.5533 4.76364C30.2074 3.04346 27.5113 1.85696 24.6552 1.28781C21.7991 0.718658 18.8524 0.780703 16.023 1.46957C13.1935 2.15844 10.5502 3.45736 8.2793 5.27476L24.4968 17.0681L38.2326 11.2437Z" fill="#1CA3C2"/>
<path fill-rule="evenodd" clip-rule="evenodd" d="M39.235 13.5523L15.834 27.7324L23.8604 40.3474C26.792 39.8749 29.5805 38.755 32.0216 37.0698C34.4628 35.3846 36.4947 33.1767 37.9687 30.6078C39.4427 28.0389 40.3214 25.174 40.5405 22.223C40.7596 19.2719 40.3136 16.3094 39.235 13.5523Z" fill="#1CA3C2"/>
<path fill-rule="evenodd" clip-rule="evenodd" d="M19.09 19.451L7.03857 6.34644C4.18813 9.04015 2.20094 12.5137 1.32707 16.3301C0.453195 20.1465 0.73168 24.1352 2.12748 27.7942C3.52328 31.4533 5.97403 34.6193 9.17136 36.8937C12.3687 39.1682 16.1697 40.4496 20.0962 40.5767L5.47041 25.5593L19.09 19.451Z" fill="#1CA3C2"/>
</svg>
