<svg width="25" height="18" viewBox="0 0 25 18" fill="none" xmlns="http://www.w3.org/2000/svg">
<path d="M2.18324 17.7056C1.80053 17.7056 1.4335 17.5535 1.16288 17.2829C0.892265 17.0123 0.740234 16.6453 0.740234 16.2626L0.740234 15.6854C0.740234 15.3027 0.892265 14.9356 1.16288 14.665C1.4335 14.3944 1.80053 14.2424 2.18324 14.2424H23.3473C23.7301 14.2424 24.0971 14.3944 24.3677 14.665C24.6383 14.9356 24.7903 15.3027 24.7903 15.6854V16.2626C24.7903 16.6453 24.6383 17.0123 24.3677 17.2829C24.0971 17.5535 23.7301 17.7056 23.3473 17.7056H2.18324ZM2.18324 10.7792C1.80053 10.7792 1.4335 10.6271 1.16288 10.3565C0.892265 10.0859 0.740234 9.71886 0.740234 9.33615L0.740234 8.75894C0.740234 8.37624 0.892265 8.0092 1.16288 7.73859C1.4335 7.46797 1.80053 7.31594 2.18324 7.31594H23.3473C23.7301 7.31594 24.0971 7.46797 24.3677 7.73859C24.6383 8.0092 24.7903 8.37624 24.7903 8.75894V9.33615C24.7903 9.71886 24.6383 10.0859 24.3677 10.3565C24.0971 10.6271 23.7301 10.7792 23.3473 10.7792H2.18324ZM2.18324 3.85272C1.80053 3.85272 1.4335 3.70069 1.16288 3.43008C0.892265 3.15946 0.740234 2.79243 0.740234 2.40972L0.740234 1.83252C0.740234 1.44981 0.892265 1.08277 1.16288 0.812158C1.4335 0.541542 1.80053 0.389511 2.18324 0.389511L23.3473 0.389511C23.7301 0.389511 24.0971 0.541542 24.3677 0.812158C24.6383 1.08277 24.7903 1.44981 24.7903 1.83252V2.40972C24.7903 2.79243 24.6383 3.15946 24.3677 3.43008C24.0971 3.70069 23.7301 3.85272 23.3473 3.85272H2.18324Z" fill="#1CA3C2"/>
</svg>
