<svg width="26" height="22" viewBox="0 0 26 22" fill="none" xmlns="http://www.w3.org/2000/svg">
<path d="M24.6121 2.87248C24.5293 2.75951 24.4209 2.66774 24.2959 2.6047C24.1708 2.54167 24.0326 2.50915 23.8925 2.5098H7.30373V3.27941H23.8944C23.9144 3.27943 23.9342 3.28414 23.952 3.29316C23.9699 3.30219 23.9853 3.31527 23.9972 3.33136C24.0091 3.34745 24.017 3.36609 24.0204 3.3858C24.0238 3.40552 24.0225 3.42575 24.0166 3.44487L21.4711 11.7691C21.4317 11.9003 21.3509 12.0152 21.2408 12.0967C21.1307 12.1781 20.9973 12.2218 20.8603 12.2212H9.07092L5.84437 1.46602C5.75873 1.17561 5.58111 0.920874 5.33822 0.7401C5.09534 0.559327 4.80033 0.462301 4.49756 0.463621H0.658203V1.23323H4.49853C4.63603 1.23259 4.77002 1.27662 4.88036 1.35867C4.99069 1.44073 5.0714 1.55638 5.11036 1.68825L9.2739 15.5661C9.35972 15.8564 9.53742 16.1109 9.78028 16.2915C10.0232 16.4721 10.3181 16.569 10.6207 16.5676H21.6174V15.798H10.6197C10.4822 15.7986 10.3483 15.7546 10.2379 15.6725C10.1276 15.5905 10.0469 15.4748 10.0079 15.3429L9.30084 12.987H20.8603C21.162 12.9887 21.4562 12.8927 21.699 12.7134C21.9417 12.5341 22.1199 12.2812 22.2071 11.9923L24.7516 3.66421C24.7923 3.53058 24.8009 3.38922 24.7767 3.25164C24.7524 3.11405 24.6961 2.98414 24.6121 2.87248Z" fill="#1CA3C2" stroke="#1CA3C2" stroke-width="0.793488"/>
<path d="M10.2011 20.7843C11.05 20.7843 11.7381 20.0961 11.7381 19.2472C11.7381 18.3983 11.05 17.7102 10.2011 17.7102C9.35221 17.7102 8.66406 18.3983 8.66406 19.2472C8.66406 20.0961 9.35221 20.7843 10.2011 20.7843Z" fill="#1CA3C2" stroke="#1CA3C2" stroke-width="0.793488"/>
<path d="M20.8984 20.7843C21.7472 20.7843 22.4354 20.0961 22.4354 19.2472C22.4354 18.3983 21.7472 17.7102 20.8984 17.7102C20.0495 17.7102 19.3613 18.3983 19.3613 19.2472C19.3613 20.0961 20.0495 20.7843 20.8984 20.7843Z" fill="#1CA3C2" stroke="#1CA3C2" stroke-width="0.793488"/>
</svg>
