<?xml version="1.0" encoding="utf-8"?>
<!-- Generator: Adobe Illustrator 16.0.0, SVG Export Plug-In . SVG Version: 6.00 Build 0)  -->
<!DOCTYPE svg PUBLIC "-//W3C//DTD SVG 1.1//EN" "http://www.w3.org/Graphics/SVG/1.1/DTD/svg11.dtd">
<svg version="1.1" id="Layer_1" xmlns="http://www.w3.org/2000/svg" xmlns:xlink="http://www.w3.org/1999/xlink" x="0px" y="0px"
	 width="250px" height="100px" viewBox="0 0 250 100" enable-background="new 0 0 250 100" xml:space="preserve">
<g>
	<polygon fill-rule="evenodd" clip-rule="evenodd" fill="#FFFFFF" points="55.095,82.297 49.056,82.297 49.056,73.158 
		55.095,73.158 55.095,74.623 50.794,74.623 50.794,76.809 55.037,76.809 55.037,78.238 50.794,78.238 50.794,80.752 55.095,80.752 
			"/>
	<path fill-rule="evenodd" clip-rule="evenodd" fill="#FFFFFF" d="M76.848,80.65c-0.458,0.557-1.012,0.998-1.664,1.326
		c-0.651,0.326-1.37,0.492-2.156,0.492c-0.678,0-1.314-0.125-1.909-0.371c-0.596-0.25-1.111-0.586-1.552-1.012
		c-0.44-0.428-0.787-0.928-1.041-1.506c-0.253-0.576-0.382-1.195-0.382-1.857c0-0.664,0.129-1.283,0.382-1.859
		c0.254-0.576,0.601-1.078,1.041-1.51s0.956-0.768,1.552-1.014c0.595-0.244,1.231-0.365,1.909-0.365
		c0.786,0,1.505,0.166,2.156,0.494c0.652,0.326,1.195,0.754,1.63,1.279l-1.224,1.258c-0.282-0.404-0.646-0.73-1.092-0.977
		c-0.446-0.248-0.937-0.373-1.471-0.373c-0.427,0-0.828,0.082-1.206,0.246s-0.707,0.385-0.989,0.664
		c-0.282,0.277-0.506,0.602-0.669,0.971c-0.164,0.371-0.246,0.766-0.246,1.186c0,0.41,0.082,0.803,0.246,1.172
		c0.163,0.371,0.387,0.691,0.669,0.973c0.282,0.277,0.611,0.498,0.989,0.662s0.779,0.246,1.206,0.246
		c0.564,0,1.064-0.129,1.499-0.383c0.435-0.256,0.796-0.594,1.086-1.012L76.848,80.65z"/>
	<polygon fill-rule="evenodd" clip-rule="evenodd" fill="#FFFFFF" points="96.942,82.297 95.17,82.297 95.17,78.248 91.567,78.248 
		91.567,82.297 89.795,82.297 89.795,73.158 91.567,73.158 91.567,76.785 95.17,76.785 95.17,73.158 96.942,73.158 	"/>
	<polygon fill-rule="evenodd" clip-rule="evenodd" fill="#FFFFFF" points="118.284,82.297 116.546,82.297 112.417,75.881 
		112.417,82.297 110.679,82.297 110.679,73.146 112.669,73.146 116.546,79.117 116.546,73.146 118.284,73.146 	"/>
	<path fill-rule="evenodd" clip-rule="evenodd" fill="#FFFFFF" d="M141.375,77.723c0,0.654-0.127,1.271-0.383,1.854
		c-0.256,0.578-0.603,1.082-1.043,1.508c-0.443,0.428-0.959,0.764-1.543,1.014c-0.588,0.246-1.211,0.371-1.875,0.371
		c-0.662,0-1.288-0.125-1.879-0.371c-0.588-0.25-1.105-0.586-1.549-1.014c-0.441-0.426-0.788-0.926-1.043-1.504
		c-0.256-0.576-0.384-1.195-0.384-1.857c0-0.664,0.128-1.285,0.384-1.865c0.255-0.578,0.602-1.08,1.043-1.51
		c0.443-0.426,0.961-0.762,1.549-1.008c0.591-0.242,1.217-0.365,1.879-0.365c0.664,0,1.287,0.123,1.875,0.365
		c0.584,0.246,1.1,0.582,1.543,1.014c0.44,0.432,0.787,0.934,1.043,1.51S141.375,77.059,141.375,77.723 M139.604,77.723
		c0-0.42-0.08-0.814-0.241-1.186c-0.159-0.369-0.38-0.693-0.659-0.971c-0.279-0.279-0.604-0.5-0.98-0.664
		c-0.373-0.164-0.771-0.246-1.191-0.246c-0.426,0-0.829,0.082-1.202,0.246c-0.376,0.164-0.702,0.385-0.979,0.664
		c-0.278,0.277-0.5,0.602-0.659,0.971c-0.161,0.371-0.241,0.766-0.241,1.186c0,0.41,0.08,0.805,0.241,1.178
		c0.159,0.375,0.381,0.699,0.659,0.977c0.277,0.281,0.604,0.502,0.979,0.664c0.373,0.164,0.776,0.246,1.202,0.246
		c0.42,0,0.818-0.082,1.191-0.246c0.377-0.162,0.701-0.383,0.98-0.664c0.279-0.277,0.5-0.602,0.659-0.977
		C139.523,78.527,139.604,78.133,139.604,77.723"/>
	<polygon fill-rule="evenodd" clip-rule="evenodd" fill="#FFFFFF" points="160.968,82.297 154.78,82.297 154.78,73.158 
		156.587,73.158 156.587,80.582 160.968,80.582 	"/>
	<path fill-rule="evenodd" clip-rule="evenodd" fill="#FFFFFF" d="M182.767,77.723c0,0.654-0.127,1.271-0.384,1.854
		c-0.255,0.578-0.602,1.082-1.043,1.508c-0.442,0.428-0.958,0.764-1.543,1.014c-0.588,0.246-1.211,0.371-1.873,0.371
		c-0.665,0-1.289-0.125-1.881-0.371c-0.588-0.25-1.104-0.586-1.547-1.014c-0.443-0.426-0.79-0.926-1.045-1.504
		c-0.255-0.576-0.383-1.195-0.383-1.857c0-0.664,0.128-1.285,0.383-1.865c0.255-0.578,0.602-1.08,1.045-1.51
		c0.442-0.426,0.959-0.762,1.547-1.008c0.592-0.242,1.216-0.365,1.881-0.365c0.662,0,1.285,0.123,1.873,0.365
		c0.585,0.246,1.101,0.582,1.543,1.014c0.441,0.432,0.788,0.934,1.043,1.51C182.64,76.439,182.767,77.059,182.767,77.723
		 M180.993,77.723c0-0.42-0.079-0.814-0.239-1.186c-0.16-0.369-0.381-0.693-0.66-0.971c-0.277-0.279-0.604-0.5-0.979-0.664
		c-0.373-0.164-0.772-0.246-1.19-0.246c-0.428,0-0.83,0.082-1.203,0.246c-0.376,0.164-0.701,0.385-0.98,0.664
		c-0.277,0.277-0.498,0.602-0.658,0.971c-0.162,0.371-0.242,0.766-0.242,1.186c0,0.41,0.08,0.805,0.242,1.178
		c0.16,0.375,0.381,0.699,0.658,0.977c0.279,0.281,0.604,0.502,0.98,0.664c0.373,0.164,0.775,0.246,1.203,0.246
		c0.418,0,0.817-0.082,1.19-0.246c0.376-0.162,0.702-0.383,0.979-0.664c0.279-0.277,0.5-0.602,0.66-0.977
		C180.914,78.527,180.993,78.133,180.993,77.723"/>
	<path fill-rule="evenodd" clip-rule="evenodd" fill="#FFFFFF" d="M204.589,80.613c-0.26,0.322-0.542,0.598-0.847,0.832
		c-0.305,0.232-0.624,0.424-0.955,0.576s-0.671,0.266-1.019,0.338c-0.346,0.072-0.691,0.109-1.033,0.109
		c-0.68,0-1.315-0.121-1.91-0.365c-0.596-0.246-1.114-0.582-1.556-1.008c-0.443-0.428-0.794-0.93-1.053-1.51
		c-0.259-0.578-0.389-1.205-0.389-1.875c0-0.656,0.127-1.271,0.383-1.848c0.255-0.576,0.606-1.076,1.052-1.504
		c0.446-0.426,0.967-0.764,1.563-1.012c0.595-0.248,1.23-0.373,1.91-0.373c0.785,0,1.499,0.16,2.144,0.48
		c0.644,0.32,1.191,0.75,1.641,1.283l-1.199,1.223c-0.343-0.465-0.726-0.799-1.153-1c-0.426-0.203-0.901-0.305-1.427-0.305
		c-0.433,0-0.841,0.082-1.222,0.24c-0.38,0.162-0.713,0.379-0.999,0.658s-0.509,0.602-0.673,0.973
		c-0.164,0.367-0.246,0.764-0.246,1.184c0,0.428,0.082,0.826,0.246,1.195s0.387,0.695,0.673,0.977
		c0.286,0.283,0.618,0.504,0.999,0.664c0.379,0.16,0.787,0.24,1.22,0.24c0.412,0,0.801-0.074,1.165-0.227
		c0.365-0.152,0.691-0.357,0.981-0.609V79.07h-1.877v-1.508h3.581V80.613z"/>
	<polygon fill-rule="evenodd" clip-rule="evenodd" fill="#FFFFFF" points="225.77,73.158 222.041,78.557 222.041,82.309 
		220.246,82.309 220.246,78.535 216.712,73.158 218.771,73.158 221.149,77 223.63,73.158 	"/>
	<polygon fill-rule="evenodd" clip-rule="evenodd" fill="#FFFFFF" points="35.891,74.738 33.364,74.738 33.364,82.297 
		31.567,82.297 31.567,74.738 29.04,74.738 29.04,73.158 35.891,73.158 	"/>
</g>
<path fill-rule="evenodd" clip-rule="evenodd" fill="#01A4EF" d="M53.101,17.531c1.772,0,3.209,1.438,3.209,3.209
	c0,1.772-1.437,3.209-3.209,3.209s-3.209-1.437-3.209-3.209C49.892,18.969,51.328,17.531,53.101,17.531"/>
<path fill-rule="evenodd" clip-rule="evenodd" fill="#FFFFFF" d="M43.2,17.531c1.771,0,3.208,1.438,3.208,3.209
	c0,1.772-1.437,3.209-3.208,3.209c-1.773,0-3.209-1.437-3.209-3.209C39.991,18.969,41.427,17.531,43.2,17.531"/>
<polygon fill-rule="evenodd" clip-rule="evenodd" fill="#01A4EF" points="48.388,38.402 58.068,64.029 67.748,64.029 52.107,26.933 
	44.193,26.933 "/>
<polygon fill="#01A4EF" points="22.218,53.986 28.82,64.029 32.982,53.986 "/>
<polygon fill="#01A4EF" points="38.2,64.029 38.2,64.029 38.2,64.027 "/>
<polygon fill="#FFFFFF" points="48.388,38.402 44.193,26.933 32.982,53.986 28.821,64.029 38.2,64.029 38.2,64.027 "/>
<polygon fill-rule="evenodd" clip-rule="evenodd" fill="#01A4EF" points="73.426,64.029 82.58,64.029 82.58,49.293 94.787,49.293 
	94.787,64.029 103.941,64.029 103.941,26.932 94.787,26.932 94.787,41.666 82.58,41.666 82.58,26.932 73.426,26.932 "/>
<path fill-rule="evenodd" clip-rule="evenodd" fill="#01A4EF" d="M120.205,34.847h7.867c2.67,0,4.617,0.93,5.841,2.789
	c1.224,1.86,1.837,4.475,1.837,7.845c0,3.368-0.613,5.982-1.837,7.844c-1.224,1.859-3.171,2.789-5.841,2.789h-7.867V34.847z
	 M111.05,64.029h19.598c4.989,0,8.749-1.59,11.276-4.768c2.527-3.18,3.791-7.773,3.791-13.781s-1.264-10.602-3.791-13.78
	s-6.287-4.769-11.276-4.769H111.05V64.029z"/>
<path fill-rule="evenodd" clip-rule="evenodd" fill="#01A4EF" d="M152.346,26.932v25.131c0,2.002,0.414,3.773,1.24,5.314
	c0.826,1.543,1.963,2.844,3.41,3.908c1.445,1.066,3.162,1.877,5.149,2.436c1.986,0.555,4.14,0.832,6.46,0.832
	s4.467-0.277,6.438-0.832c1.971-0.559,3.687-1.369,5.15-2.436c1.461-1.064,2.606-2.365,3.433-3.908
	c0.826-1.541,1.239-3.313,1.239-5.314V26.932h-9.155v24.605c0,0.697-0.15,1.373-0.453,2.025c-0.302,0.652-0.755,1.225-1.358,1.717
	c-0.604,0.494-1.351,0.891-2.241,1.191c-0.89,0.303-1.907,0.455-3.052,0.455c-1.176,0-2.209-0.152-3.099-0.455
	c-0.89-0.301-1.63-0.697-2.218-1.191c-0.588-0.492-1.033-1.064-1.334-1.717c-0.303-0.652-0.453-1.328-0.453-2.025V26.932H152.346z"
	/>
<path fill-rule="evenodd" clip-rule="evenodd" fill="#01A4EF" d="M225.828,26.932h-23.317c-1.112,0-2.304,0.144-3.576,0.429
	c-1.271,0.287-2.463,0.835-3.575,1.646c-1.113,0.811-2.034,1.939-2.765,3.386c-0.732,1.446-1.099,3.345-1.099,5.697
	s0.366,4.26,1.099,5.723c0.73,1.461,1.651,2.599,2.765,3.409c1.112,0.811,2.304,1.358,3.575,1.646
	c1.272,0.285,2.464,0.427,3.576,0.427h12.159c1.049,0,1.932,0.239,2.646,0.717s1.073,1.367,1.073,2.67
	c0,1.336-0.351,2.242-1.05,2.719s-1.557,0.715-2.575,0.715H193.07v7.916h23.697c1.082,0,2.266-0.15,3.553-0.453
	s2.488-0.867,3.601-1.693s2.034-1.979,2.766-3.457c0.729-1.479,1.096-3.393,1.096-5.746c0-2.353-0.366-4.26-1.096-5.722
	c-0.731-1.462-1.653-2.606-2.766-3.433s-2.313-1.392-3.601-1.692c-1.287-0.303-2.471-0.454-3.553-0.454h-12.158
	c-0.954,0-1.805-0.246-2.551-0.738c-0.747-0.494-1.12-1.343-1.12-2.552c0-1.208,0.357-2.05,1.073-2.527
	c0.714-0.477,1.549-0.715,2.502-0.715h21.314V26.932z"/>
<polygon fill-rule="evenodd" clip-rule="evenodd" fill="#FFFFFF" points="48.12,55.852 54.979,55.852 58.067,64.029 44.87,64.029 
	"/>
</svg>
