<svg width="22" height="23" viewBox="0 0 22 23" fill="none" xmlns="http://www.w3.org/2000/svg">
<path d="M1.23438 21.489V18.9858C1.23438 16.2323 5.74008 13.9795 11.247 13.9795C16.754 13.9795 21.2597 16.2323 21.2597 18.9858V21.489H1.23438ZM6.24071 6.46995C6.24071 5.47979 6.53433 4.51186 7.08443 3.68858C7.63453 2.86529 8.41642 2.22361 9.3312 1.84469C10.246 1.46578 11.2526 1.36663 12.2237 1.55981C13.1949 1.75298 14.0869 2.22978 14.7871 2.92993C15.4872 3.63008 15.964 4.52212 16.1572 5.49326C16.3504 6.46439 16.2512 7.471 15.8723 8.38579C15.4934 9.30058 14.8517 10.0825 14.0284 10.6326C13.2051 11.1827 12.2372 11.4763 11.247 11.4763C9.91928 11.4763 8.6459 10.9488 7.70703 10.01C6.76816 9.07109 6.24071 7.79771 6.24071 6.46995V6.46995Z" stroke="#1CA3C2" stroke-width="1.18018" stroke-miterlimit="10"/>
</svg>
