<?xml version="1.0" encoding="UTF-8"?>
<svg xmlns="http://www.w3.org/2000/svg" xmlns:xlink="http://www.w3.org/1999/xlink" width="25px" height="10px" viewBox="0 0 25 10" version="1.1">
<g id="surface1">
<path style=" stroke:none;fill-rule:evenodd;fill:rgb(100%,100%,100%);fill-opacity:1;" d="M 5.511719 8.230469 L 4.90625 8.230469 L 4.90625 7.316406 L 5.511719 7.316406 L 5.511719 7.460938 L 5.078125 7.460938 L 5.078125 7.679688 L 5.503906 7.679688 L 5.503906 7.824219 L 5.078125 7.824219 L 5.078125 8.074219 L 5.511719 8.074219 Z M 5.511719 8.230469 "/>
<path style=" stroke:none;fill-rule:evenodd;fill:rgb(100%,100%,100%);fill-opacity:1;" d="M 7.683594 8.066406 C 7.640625 8.121094 7.582031 8.164062 7.519531 8.199219 C 7.453125 8.230469 7.382812 8.246094 7.300781 8.246094 C 7.234375 8.246094 7.171875 8.234375 7.113281 8.210938 C 7.050781 8.183594 7 8.152344 6.957031 8.109375 C 6.914062 8.066406 6.878906 8.015625 6.851562 7.957031 C 6.828125 7.902344 6.816406 7.839844 6.816406 7.773438 C 6.816406 7.707031 6.828125 7.644531 6.851562 7.585938 C 6.878906 7.527344 6.914062 7.480469 6.957031 7.433594 C 7 7.390625 7.050781 7.359375 7.113281 7.332031 C 7.171875 7.308594 7.234375 7.296875 7.300781 7.296875 C 7.382812 7.296875 7.453125 7.3125 7.519531 7.347656 C 7.582031 7.378906 7.636719 7.421875 7.683594 7.472656 L 7.558594 7.601562 C 7.53125 7.558594 7.496094 7.527344 7.449219 7.503906 C 7.40625 7.476562 7.355469 7.464844 7.300781 7.464844 C 7.261719 7.464844 7.21875 7.472656 7.183594 7.488281 C 7.144531 7.507812 7.113281 7.527344 7.082031 7.558594 C 7.054688 7.582031 7.03125 7.617188 7.015625 7.652344 C 7 7.691406 6.992188 7.730469 6.992188 7.773438 C 6.992188 7.8125 7 7.851562 7.015625 7.890625 C 7.03125 7.925781 7.054688 7.957031 7.082031 7.988281 C 7.113281 8.015625 7.144531 8.035156 7.183594 8.050781 C 7.21875 8.070312 7.261719 8.078125 7.300781 8.078125 C 7.359375 8.078125 7.410156 8.066406 7.453125 8.039062 C 7.496094 8.011719 7.53125 7.980469 7.5625 7.9375 Z M 7.683594 8.066406 "/>
<path style=" stroke:none;fill-rule:evenodd;fill:rgb(100%,100%,100%);fill-opacity:1;" d="M 9.695312 8.230469 L 9.515625 8.230469 L 9.515625 7.824219 L 9.15625 7.824219 L 9.15625 8.230469 L 8.980469 8.230469 L 8.980469 7.316406 L 9.15625 7.316406 L 9.15625 7.679688 L 9.515625 7.679688 L 9.515625 7.316406 L 9.695312 7.316406 Z M 9.695312 8.230469 "/>
<path style=" stroke:none;fill-rule:evenodd;fill:rgb(100%,100%,100%);fill-opacity:1;" d="M 11.828125 8.230469 L 11.652344 8.230469 L 11.242188 7.589844 L 11.242188 8.230469 L 11.066406 8.230469 L 11.066406 7.316406 L 11.265625 7.316406 L 11.652344 7.910156 L 11.652344 7.316406 L 11.828125 7.316406 Z M 11.828125 8.230469 "/>
<path style=" stroke:none;fill-rule:evenodd;fill:rgb(100%,100%,100%);fill-opacity:1;" d="M 14.136719 7.773438 C 14.136719 7.839844 14.125 7.898438 14.097656 7.957031 C 14.074219 8.015625 14.039062 8.066406 13.996094 8.109375 C 13.949219 8.152344 13.898438 8.183594 13.839844 8.210938 C 13.78125 8.234375 13.71875 8.246094 13.652344 8.246094 C 13.585938 8.246094 13.523438 8.234375 13.464844 8.210938 C 13.40625 8.183594 13.355469 8.152344 13.308594 8.109375 C 13.265625 8.066406 13.230469 8.015625 13.207031 7.957031 C 13.179688 7.902344 13.167969 7.839844 13.167969 7.773438 C 13.167969 7.707031 13.179688 7.644531 13.207031 7.585938 C 13.230469 7.527344 13.265625 7.476562 13.308594 7.433594 C 13.355469 7.394531 13.40625 7.359375 13.464844 7.332031 C 13.523438 7.308594 13.585938 7.296875 13.652344 7.296875 C 13.71875 7.296875 13.78125 7.308594 13.839844 7.332031 C 13.898438 7.359375 13.949219 7.394531 13.996094 7.433594 C 14.039062 7.480469 14.074219 7.527344 14.097656 7.585938 C 14.125 7.644531 14.136719 7.707031 14.136719 7.773438 M 13.960938 7.773438 C 13.960938 7.730469 13.953125 7.691406 13.9375 7.652344 C 13.921875 7.617188 13.898438 7.585938 13.871094 7.558594 C 13.84375 7.527344 13.808594 7.507812 13.773438 7.488281 C 13.734375 7.472656 13.695312 7.464844 13.652344 7.464844 C 13.609375 7.464844 13.570312 7.472656 13.535156 7.488281 C 13.496094 7.507812 13.464844 7.527344 13.433594 7.558594 C 13.40625 7.582031 13.386719 7.617188 13.371094 7.652344 C 13.355469 7.691406 13.34375 7.730469 13.34375 7.773438 C 13.34375 7.8125 13.355469 7.851562 13.371094 7.890625 C 13.386719 7.925781 13.40625 7.960938 13.433594 7.988281 C 13.464844 8.015625 13.496094 8.039062 13.535156 8.054688 C 13.570312 8.070312 13.609375 8.078125 13.652344 8.078125 C 13.695312 8.078125 13.734375 8.070312 13.773438 8.054688 C 13.808594 8.039062 13.84375 8.015625 13.871094 7.988281 C 13.898438 7.960938 13.921875 7.925781 13.9375 7.890625 C 13.953125 7.851562 13.960938 7.8125 13.960938 7.773438 "/>
<path style=" stroke:none;fill-rule:evenodd;fill:rgb(100%,100%,100%);fill-opacity:1;" d="M 16.097656 8.230469 L 15.476562 8.230469 L 15.476562 7.316406 L 15.660156 7.316406 L 15.660156 8.058594 L 16.097656 8.058594 Z M 16.097656 8.230469 "/>
<path style=" stroke:none;fill-rule:evenodd;fill:rgb(100%,100%,100%);fill-opacity:1;" d="M 18.277344 7.773438 C 18.277344 7.839844 18.265625 7.898438 18.238281 7.957031 C 18.214844 8.015625 18.179688 8.066406 18.132812 8.109375 C 18.089844 8.152344 18.039062 8.183594 17.980469 8.210938 C 17.921875 8.234375 17.859375 8.246094 17.792969 8.246094 C 17.726562 8.246094 17.664062 8.234375 17.605469 8.210938 C 17.546875 8.183594 17.496094 8.152344 17.449219 8.109375 C 17.40625 8.066406 17.371094 8.015625 17.34375 7.957031 C 17.320312 7.902344 17.308594 7.839844 17.308594 7.773438 C 17.308594 7.707031 17.320312 7.644531 17.34375 7.585938 C 17.371094 7.527344 17.40625 7.476562 17.449219 7.433594 C 17.492188 7.394531 17.546875 7.359375 17.605469 7.332031 C 17.664062 7.308594 17.726562 7.296875 17.792969 7.296875 C 17.859375 7.296875 17.921875 7.308594 17.980469 7.332031 C 18.039062 7.359375 18.089844 7.394531 18.132812 7.433594 C 18.179688 7.480469 18.214844 7.527344 18.238281 7.585938 C 18.265625 7.644531 18.277344 7.707031 18.277344 7.773438 M 18.097656 7.773438 C 18.097656 7.730469 18.089844 7.691406 18.074219 7.652344 C 18.058594 7.617188 18.035156 7.585938 18.007812 7.558594 C 17.980469 7.527344 17.949219 7.507812 17.910156 7.488281 C 17.875 7.472656 17.832031 7.464844 17.792969 7.464844 C 17.75 7.464844 17.710938 7.472656 17.671875 7.488281 C 17.636719 7.507812 17.601562 7.527344 17.574219 7.558594 C 17.546875 7.582031 17.523438 7.617188 17.507812 7.652344 C 17.492188 7.691406 17.484375 7.730469 17.484375 7.773438 C 17.484375 7.8125 17.492188 7.851562 17.507812 7.890625 C 17.523438 7.925781 17.546875 7.960938 17.574219 7.988281 C 17.601562 8.015625 17.636719 8.039062 17.671875 8.054688 C 17.710938 8.070312 17.75 8.078125 17.792969 8.078125 C 17.832031 8.078125 17.875 8.070312 17.910156 8.054688 C 17.949219 8.039062 17.980469 8.015625 18.007812 7.988281 C 18.035156 7.960938 18.058594 7.925781 18.074219 7.890625 C 18.089844 7.851562 18.097656 7.8125 18.097656 7.773438 "/>
<path style=" stroke:none;fill-rule:evenodd;fill:rgb(100%,100%,100%);fill-opacity:1;" d="M 20.457031 8.0625 C 20.433594 8.09375 20.40625 8.121094 20.375 8.144531 C 20.34375 8.167969 20.3125 8.1875 20.277344 8.203125 C 20.246094 8.21875 20.210938 8.230469 20.175781 8.234375 C 20.140625 8.242188 20.105469 8.246094 20.074219 8.246094 C 20.003906 8.246094 19.941406 8.234375 19.882812 8.210938 C 19.824219 8.183594 19.769531 8.152344 19.726562 8.109375 C 19.683594 8.066406 19.648438 8.015625 19.621094 7.957031 C 19.597656 7.902344 19.582031 7.839844 19.582031 7.769531 C 19.582031 7.707031 19.597656 7.644531 19.621094 7.585938 C 19.644531 7.527344 19.683594 7.480469 19.726562 7.433594 C 19.769531 7.394531 19.824219 7.359375 19.882812 7.335938 C 19.941406 7.308594 20.003906 7.296875 20.074219 7.296875 C 20.152344 7.296875 20.222656 7.3125 20.289062 7.34375 C 20.351562 7.378906 20.40625 7.421875 20.453125 7.472656 L 20.332031 7.597656 C 20.296875 7.550781 20.261719 7.515625 20.214844 7.496094 C 20.175781 7.476562 20.128906 7.464844 20.074219 7.464844 C 20.03125 7.464844 19.988281 7.472656 19.953125 7.488281 C 19.914062 7.503906 19.878906 7.527344 19.851562 7.554688 C 19.824219 7.582031 19.800781 7.613281 19.785156 7.652344 C 19.769531 7.691406 19.761719 7.730469 19.761719 7.769531 C 19.761719 7.8125 19.769531 7.855469 19.785156 7.890625 C 19.800781 7.925781 19.824219 7.960938 19.851562 7.988281 C 19.878906 8.015625 19.914062 8.039062 19.953125 8.054688 C 19.988281 8.070312 20.03125 8.078125 20.074219 8.078125 C 20.113281 8.078125 20.152344 8.070312 20.191406 8.054688 C 20.226562 8.039062 20.261719 8.019531 20.289062 7.996094 L 20.289062 7.90625 L 20.101562 7.90625 L 20.101562 7.757812 L 20.457031 7.757812 Z M 20.457031 8.0625 "/>
<path style=" stroke:none;fill-rule:evenodd;fill:rgb(100%,100%,100%);fill-opacity:1;" d="M 22.578125 7.316406 L 22.203125 7.855469 L 22.203125 8.230469 L 22.023438 8.230469 L 22.023438 7.855469 L 21.671875 7.316406 L 21.878906 7.316406 L 22.113281 7.699219 L 22.363281 7.316406 Z M 22.578125 7.316406 "/>
<path style=" stroke:none;fill-rule:evenodd;fill:rgb(100%,100%,100%);fill-opacity:1;" d="M 3.589844 7.472656 L 3.335938 7.472656 L 3.335938 8.230469 L 3.15625 8.230469 L 3.15625 7.472656 L 2.902344 7.472656 L 2.902344 7.316406 L 3.589844 7.316406 Z M 3.589844 7.472656 "/>
<path style=" stroke:none;fill-rule:evenodd;fill:rgb(0.392157%,64.313725%,93.72549%);fill-opacity:1;" d="M 5.308594 1.753906 C 5.488281 1.753906 5.628906 1.898438 5.628906 2.074219 C 5.628906 2.25 5.488281 2.394531 5.308594 2.394531 C 5.132812 2.394531 4.988281 2.25 4.988281 2.074219 C 4.988281 1.898438 5.132812 1.753906 5.308594 1.753906 "/>
<path style=" stroke:none;fill-rule:evenodd;fill:rgb(100%,100%,100%);fill-opacity:1;" d="M 4.320312 1.753906 C 4.496094 1.753906 4.640625 1.898438 4.640625 2.074219 C 4.640625 2.25 4.496094 2.394531 4.320312 2.394531 C 4.144531 2.394531 4 2.25 4 2.074219 C 4 1.898438 4.144531 1.753906 4.320312 1.753906 "/>
<path style=" stroke:none;fill-rule:evenodd;fill:rgb(0.392157%,64.313725%,93.72549%);fill-opacity:1;" d="M 4.839844 3.839844 L 5.808594 6.402344 L 6.773438 6.402344 L 5.210938 2.691406 L 4.417969 2.691406 Z M 4.839844 3.839844 "/>
<path style=" stroke:none;fill-rule:nonzero;fill:rgb(0.392157%,64.313725%,93.72549%);fill-opacity:1;" d="M 2.222656 5.398438 L 2.882812 6.402344 L 3.296875 5.398438 Z M 2.222656 5.398438 "/>
<path style=" stroke:none;fill-rule:nonzero;fill:rgb(100%,100%,100%);fill-opacity:1;" d="M 4.839844 3.839844 L 4.417969 2.691406 L 3.296875 5.398438 L 2.882812 6.402344 L 3.820312 6.402344 Z M 4.839844 3.839844 "/>
<path style=" stroke:none;fill-rule:evenodd;fill:rgb(0.392157%,64.313725%,93.72549%);fill-opacity:1;" d="M 7.34375 6.402344 L 8.257812 6.402344 L 8.257812 4.929688 L 9.480469 4.929688 L 9.480469 6.402344 L 10.394531 6.402344 L 10.394531 2.691406 L 9.480469 2.691406 L 9.480469 4.167969 L 8.257812 4.167969 L 8.257812 2.691406 L 7.34375 2.691406 Z M 7.34375 6.402344 "/>
<path style=" stroke:none;fill-rule:evenodd;fill:rgb(0.392157%,64.313725%,93.72549%);fill-opacity:1;" d="M 12.019531 3.484375 L 12.808594 3.484375 C 13.074219 3.484375 13.269531 3.578125 13.390625 3.761719 C 13.511719 3.949219 13.574219 4.210938 13.574219 4.546875 C 13.574219 4.886719 13.511719 5.144531 13.390625 5.332031 C 13.269531 5.519531 13.074219 5.613281 12.808594 5.613281 L 12.019531 5.613281 Z M 11.105469 6.402344 L 13.066406 6.402344 C 13.5625 6.402344 13.941406 6.246094 14.191406 5.925781 C 14.445312 5.609375 14.570312 5.148438 14.570312 4.546875 C 14.570312 3.949219 14.445312 3.488281 14.191406 3.167969 C 13.941406 2.851562 13.5625 2.691406 13.066406 2.691406 L 11.105469 2.691406 Z M 11.105469 6.402344 "/>
<path style=" stroke:none;fill-rule:evenodd;fill:rgb(0.392157%,64.313725%,93.72549%);fill-opacity:1;" d="M 15.234375 2.691406 L 15.234375 5.207031 C 15.234375 5.40625 15.277344 5.582031 15.359375 5.738281 C 15.441406 5.890625 15.554688 6.023438 15.699219 6.128906 C 15.84375 6.234375 16.015625 6.316406 16.214844 6.371094 C 16.414062 6.425781 16.628906 6.457031 16.859375 6.457031 C 17.09375 6.457031 17.308594 6.425781 17.503906 6.371094 C 17.699219 6.316406 17.871094 6.234375 18.019531 6.128906 C 18.164062 6.023438 18.28125 5.890625 18.363281 5.738281 C 18.445312 5.582031 18.488281 5.40625 18.488281 5.207031 L 18.488281 2.691406 L 17.570312 2.691406 L 17.570312 5.152344 C 17.570312 5.222656 17.554688 5.292969 17.527344 5.355469 C 17.496094 5.421875 17.449219 5.480469 17.390625 5.527344 C 17.328125 5.578125 17.253906 5.617188 17.167969 5.648438 C 17.078125 5.675781 16.976562 5.691406 16.859375 5.691406 C 16.742188 5.691406 16.640625 5.675781 16.550781 5.648438 C 16.460938 5.617188 16.386719 5.578125 16.328125 5.527344 C 16.269531 5.480469 16.226562 5.421875 16.195312 5.355469 C 16.164062 5.292969 16.152344 5.222656 16.152344 5.152344 L 16.152344 2.691406 Z M 15.234375 2.691406 "/>
<path style=" stroke:none;fill-rule:evenodd;fill:rgb(0.392157%,64.313725%,93.72549%);fill-opacity:1;" d="M 22.582031 2.691406 L 20.25 2.691406 C 20.140625 2.691406 20.019531 2.707031 19.894531 2.738281 C 19.765625 2.765625 19.648438 2.820312 19.535156 2.902344 C 19.425781 2.980469 19.332031 3.09375 19.261719 3.238281 C 19.1875 3.382812 19.148438 3.574219 19.148438 3.808594 C 19.148438 4.042969 19.1875 4.234375 19.261719 4.382812 C 19.332031 4.527344 19.425781 4.640625 19.535156 4.722656 C 19.648438 4.804688 19.765625 4.859375 19.894531 4.886719 C 20.019531 4.914062 20.140625 4.929688 20.25 4.929688 L 21.464844 4.929688 C 21.570312 4.929688 21.660156 4.953125 21.730469 5 C 21.800781 5.050781 21.839844 5.136719 21.839844 5.269531 C 21.839844 5.402344 21.804688 5.492188 21.734375 5.539062 C 21.664062 5.589844 21.578125 5.613281 21.476562 5.613281 L 19.308594 5.613281 L 19.308594 6.402344 L 21.675781 6.402344 C 21.785156 6.402344 21.902344 6.386719 22.03125 6.359375 C 22.160156 6.328125 22.28125 6.269531 22.390625 6.1875 C 22.503906 6.105469 22.597656 5.992188 22.667969 5.84375 C 22.742188 5.695312 22.777344 5.503906 22.777344 5.269531 C 22.777344 5.035156 22.742188 4.84375 22.667969 4.695312 C 22.597656 4.550781 22.503906 4.433594 22.390625 4.351562 C 22.28125 4.269531 22.160156 4.214844 22.03125 4.183594 C 21.902344 4.152344 21.785156 4.136719 21.675781 4.136719 L 20.460938 4.136719 C 20.363281 4.136719 20.28125 4.113281 20.207031 4.066406 C 20.128906 4.015625 20.09375 3.929688 20.09375 3.808594 C 20.09375 3.6875 20.128906 3.605469 20.199219 3.558594 C 20.273438 3.507812 20.355469 3.484375 20.449219 3.484375 L 22.582031 3.484375 Z M 22.582031 2.691406 "/>
<path style=" stroke:none;fill-rule:evenodd;fill:rgb(100%,100%,100%);fill-opacity:1;" d="M 4.8125 5.585938 L 5.496094 5.585938 L 5.808594 6.402344 L 4.488281 6.402344 Z M 4.8125 5.585938 "/>
</g>
</svg>
