<svg width="36" height="21" viewBox="0 0 36 21" fill="none" xmlns="http://www.w3.org/2000/svg">
<path d="M5.5325 1.04222H30.472C32.7032 1.04222 34.5119 2.85091 34.5119 5.08204V16.1663C34.5119 18.3974 32.7032 20.2061 30.472 20.2061H5.5325C3.30137 20.2061 1.49268 18.3974 1.49268 16.1663V5.08204C1.49268 2.85091 3.30137 1.04222 5.5325 1.04222Z" fill="white" stroke="#1CA3C2" stroke-width="1.15723"/>
<path d="M8.93842 15.7229L5.54942 5.55683C5.53673 5.51022 5.53144 5.46191 5.53372 5.41366C5.53244 5.36968 5.54016 5.32591 5.55643 5.28504C5.5727 5.24417 5.59717 5.20706 5.62832 5.17599C5.65947 5.14493 5.69665 5.12057 5.73757 5.10441C5.77849 5.08826 5.82228 5.08065 5.86625 5.08205H7.2758C7.39626 5.07657 7.51444 5.11608 7.60739 5.1929C7.68512 5.25583 7.74552 5.33752 7.7829 5.43028L10.4274 13.5375L13.0876 5.43028C13.1139 5.33647 13.1692 5.25339 13.2456 5.1929C13.3387 5.1157 13.4573 5.07616 13.5781 5.08205H15.0034C15.0887 5.08239 15.1707 5.11544 15.2324 5.17442C15.2658 5.20421 15.2922 5.24084 15.3101 5.28181C15.328 5.32278 15.3368 5.36713 15.3359 5.41181L15.3045 5.55498L11.9339 15.7229C11.8969 15.8562 11.8154 15.9728 11.703 16.0534C11.5907 16.1341 11.4541 16.1739 11.316 16.1663H9.561C9.4215 16.1782 9.2823 16.1402 9.16826 16.059C9.05422 15.9778 8.97275 15.8587 8.93842 15.7229Z" fill="#1CA3C2"/>
<path d="M17.1229 16.0558C17.0871 16.0207 17.0588 15.9787 17.0398 15.9323C17.0207 15.8859 17.0113 15.8362 17.0121 15.786V5.46199C17.0097 5.41056 17.0184 5.35921 17.0375 5.31141C17.0566 5.26361 17.0857 5.22047 17.1229 5.18488C17.196 5.11671 17.2928 5.0799 17.3927 5.08235H18.9131C18.9638 5.07879 19.0148 5.08617 19.0624 5.10398C19.1101 5.1218 19.1534 5.14964 19.1894 5.18563C19.2254 5.22162 19.2532 5.26492 19.2711 5.3126C19.2889 5.36027 19.2963 5.41122 19.2927 5.46199V15.786C19.2952 15.8861 19.258 15.983 19.1892 16.0558C19.1537 16.093 19.1105 16.1222 19.0627 16.1413C19.0149 16.1604 18.9636 16.1691 18.9121 16.1666H17.3917C17.3418 16.1673 17.2922 16.1578 17.246 16.1387C17.1998 16.1197 17.1579 16.0914 17.1229 16.0558Z" fill="#1CA3C2"/>
<path d="M21.8729 16.0555C21.8371 16.0204 21.8088 15.9784 21.7898 15.932C21.7707 15.8856 21.7613 15.8359 21.7621 15.7857V5.47833C21.7576 5.37343 21.7944 5.27095 21.8646 5.19291C21.9002 5.15575 21.9434 5.12664 21.9912 5.10753C22.039 5.08841 22.0903 5.07973 22.1417 5.08206H23.3776C23.4721 5.07911 23.5654 5.10274 23.6471 5.15027C23.7287 5.19779 23.7954 5.26729 23.8395 5.35086L28.3655 12.382V5.4774C28.3607 5.37262 28.3972 5.27012 28.4671 5.19199C28.5027 5.15478 28.5459 5.12564 28.5937 5.10652C28.6415 5.0874 28.6928 5.07874 28.7442 5.08114H30.1067C30.1593 5.07891 30.2118 5.08764 30.2608 5.10678C30.3098 5.12592 30.3543 5.15504 30.3915 5.1923C30.4287 5.22957 30.4577 5.27416 30.4767 5.32324C30.4958 5.37232 30.5044 5.42482 30.502 5.4774V15.7691C30.5041 15.8219 30.4954 15.8745 30.4763 15.9238C30.4572 15.973 30.4283 16.0179 30.3912 16.0555C30.3563 16.091 30.3146 16.1192 30.2686 16.1383C30.2225 16.1573 30.1731 16.1668 30.1233 16.1663H28.8717C28.7753 16.1703 28.6796 16.1472 28.5957 16.0995C28.5117 16.0518 28.4429 15.9815 28.3969 15.8966L23.8838 9.02436V15.7857C23.8861 15.8854 23.8497 15.9821 23.7822 16.0555C23.7465 16.0926 23.7034 16.1217 23.6556 16.1408C23.6078 16.1599 23.5565 16.1686 23.5051 16.1663H22.1436C22.0933 16.1672 22.0434 16.1579 21.9968 16.1388C21.9503 16.1197 21.9081 16.0914 21.8729 16.0555Z" fill="#1CA3C2"/>
</svg>
